<svg width="124" height="35" viewBox="0 0 124 35" fill="none" xmlns="http://www.w3.org/2000/svg">
<path d="M13.358 33.088L0.157999 23.632V20.848L13.358 11.44L14.462 16.576L6.398 22.24L14.462 27.904L13.358 33.088ZM20.642 27.04C20.642 27.712 20.914 28.32 21.458 28.864C22.002 29.376 22.722 29.632 23.618 29.632C24.482 29.632 25.346 29.44 26.21 29.056C27.106 28.672 27.954 28.096 28.754 27.328V23.776H24.05C22.962 23.776 22.114 24.112 21.506 24.784C20.93 25.456 20.642 26.208 20.642 27.04ZM23.714 34.576C20.866 34.576 18.754 33.888 17.378 32.512C16.002 31.104 15.314 29.28 15.314 27.04C15.314 24.64 16.13 22.8 17.762 21.52C19.394 20.24 21.522 19.6 24.146 19.6H28.706C28.674 18.416 28.322 17.504 27.65 16.864C27.01 16.192 26.114 15.856 24.962 15.856C23.874 15.856 22.69 16.016 21.41 16.336C20.13 16.624 19.058 16.976 18.194 17.392L16.514 12.208C17.41 11.6 18.77 11.104 20.594 10.72C22.45 10.304 23.874 10.096 24.866 10.096C27.65 10.096 30.034 10.912 32.018 12.544C34.002 14.144 34.994 16.192 34.994 18.688V34H31.778L30.242 32.032C29.378 32.704 28.354 33.296 27.17 33.808C26.018 34.32 24.866 34.576 23.714 34.576ZM52.848 0.112V11.44C53.776 10.928 54.752 10.528 55.776 10.24C56.832 9.952 57.776 9.808 58.608 9.808C62.032 9.808 64.656 10.992 66.48 13.36C68.304 15.728 69.216 18.672 69.216 22.192C69.216 25.712 68.272 28.656 66.384 31.024C64.528 33.392 61.936 34.576 58.608 34.576C57.52 34.576 56.304 34.352 54.96 33.904C53.616 33.456 52.416 32.832 51.36 32.032L49.8238 34H46.6558V0.639996L52.848 0.112ZM56.976 29.248C59.12 29.248 60.624 28.48 61.488 26.944C62.352 25.376 62.784 23.792 62.784 22.192C62.784 20.368 62.4 18.736 61.632 17.296C60.864 15.856 59.312 15.136 56.976 15.136C56.304 15.136 55.6 15.264 54.864 15.52C54.16 15.744 53.488 16.064 52.848 16.48V27.904C53.488 28.288 54.16 28.608 54.864 28.864C55.6 29.12 56.304 29.248 56.976 29.248ZM84.0985 10.72L85.3465 15.712C84.2905 15.712 83.0585 16.016 81.6505 16.624C80.2745 17.232 78.9145 18.128 77.5705 19.312V34H71.3305V10.72H74.5945L76.6585 14.128C77.6185 13.296 78.7865 12.528 80.1625 11.824C81.5385 11.088 82.8505 10.72 84.0985 10.72ZM96.4055 34.576C92.7255 34.576 89.8455 33.472 87.7655 31.264C85.7175 29.024 84.6935 26.032 84.6935 22.288C84.6935 18.576 85.7655 15.616 87.9095 13.408C90.0855 11.2 93.0455 10.096 96.7895 10.096C100.662 10.096 103.654 11.248 105.766 13.552C107.91 15.824 108.982 18.816 108.982 22.528C108.982 26.24 107.83 29.184 105.526 31.36C103.222 33.504 100.182 34.576 96.4055 34.576ZM102.55 22.528C102.55 20.32 102.054 18.592 101.062 17.344C100.102 16.064 98.7255 15.424 96.9335 15.424C95.1095 15.424 93.6855 15.984 92.6615 17.104C91.6375 18.224 91.1255 19.936 91.1255 22.24C91.1255 24.544 91.5575 26.288 92.4215 27.472C93.3175 28.656 94.6775 29.248 96.5015 29.248C98.2935 29.248 99.7495 28.72 100.87 27.664C101.99 26.576 102.55 24.864 102.55 22.528ZM110.702 11.44L123.902 20.848V23.632L110.702 33.088L109.598 27.904L117.662 22.24L109.598 16.576L110.702 11.44Z" fill="white"/>
</svg>
